<mxfile host="app.diagrams.net" modified="2021-07-05T13:05:38.811Z" agent="5.0 (Windows NT 10.0; Win64; x64) AppleWebKit/537.36 (KHTML, like Gecko) Chrome/91.0.4472.124 Safari/537.36" etag="FqDY_qDjmGvAhAi3Gi7U" version="14.8.4" type="github">
  <diagram id="mKJiF7lBft6tl4fKY5w2" name="Page-1">
    <mxGraphModel dx="868" dy="450" grid="1" gridSize="10" guides="1" tooltips="1" connect="1" arrows="1" fold="1" page="1" pageScale="1" pageWidth="850" pageHeight="1100" math="0" shadow="0">
      <root>
        <mxCell id="0" />
        <mxCell id="1" parent="0" />
        <mxCell id="spvZ1DBhhZ7TJqAkYqZx-2" value="Details:&lt;br&gt;1. Profile page&lt;br&gt;2. Catalogue page&lt;br&gt;3. Details Object Page&lt;br&gt;4. Admin page&lt;br&gt;5. Cart page&lt;br&gt;6. Transaction details page" style="text;html=1;strokeColor=none;fillColor=none;align=left;verticalAlign=middle;whiteSpace=wrap;rounded=0;" vertex="1" parent="1">
          <mxGeometry x="40" y="30" width="160" height="80" as="geometry" />
        </mxCell>
        <mxCell id="spvZ1DBhhZ7TJqAkYqZx-3" value="Stack:&lt;br&gt;1. Nodejs/Spring&lt;br&gt;2. Nextjs&lt;br&gt;3. Strapi&lt;br&gt;4. Cloudinary" style="text;html=1;strokeColor=none;fillColor=none;align=left;verticalAlign=middle;whiteSpace=wrap;rounded=0;" vertex="1" parent="1">
          <mxGeometry x="230" y="20" width="140" height="70" as="geometry" />
        </mxCell>
      </root>
    </mxGraphModel>
  </diagram>
</mxfile>
